<svg width="40" height="40" viewBox="0 0 40 40" fill="none" xmlns="http://www.w3.org/2000/svg">
<g clip-path="url(#clip0)">
<path d="M34.1395 5.85537C26.3279 -1.95393 13.6645 -1.95206 5.85524 5.85966C-1.95405 13.6714 -1.95218 26.3347 5.85954 34.144C13.6713 41.9533 26.3345 41.9514 34.1438 34.1397C37.8943 30.388 40.0007 25.3001 39.9995 19.9954C39.9984 14.6915 37.8906 9.60521 34.1395 5.85537ZM30.2888 27.8594C30.288 27.8603 30.2871 27.8612 30.2862 27.8621V27.8554L29.2728 28.8621C27.9623 30.1892 26.0536 30.7352 24.2395 30.3021C22.4117 29.8129 20.6742 29.0341 19.0928 27.9954C17.6236 27.0565 16.262 25.9588 15.0328 24.7221C13.9018 23.5994 12.8857 22.3665 11.9995 21.0421C11.0301 19.6169 10.2628 18.0644 9.71946 16.4287C9.09657 14.5072 9.61274 12.3986 11.0528 10.9821L12.2395 9.79545C12.5694 9.46404 13.1055 9.46287 13.4368 9.79279C13.4377 9.79365 13.4386 9.79451 13.4395 9.79545L17.1861 13.5421C17.5175 13.872 17.5187 14.4081 17.1888 14.7394C17.1879 14.7403 17.187 14.7411 17.1861 14.7421L14.9861 16.9421C14.3549 17.5665 14.2755 18.5586 14.7995 19.2754C15.5952 20.3675 16.4757 21.3951 17.4328 22.3488C18.4999 23.4205 19.66 24.3954 20.8995 25.2622C21.6156 25.7617 22.5866 25.6775 23.2061 25.0622L25.3327 22.9022C25.6627 22.5708 26.1988 22.5696 26.5301 22.8995C26.5309 22.9004 26.5318 22.9012 26.5327 22.9022L30.2861 26.6622C30.6176 26.992 30.6188 27.528 30.2888 27.8594Z" fill="white"/>
</g>
<defs>
<clipPath id="clip0">
<rect width="40" height="40" fill="white"/>
</clipPath>
</defs>
</svg>
